<svg xmlns="http://www.w3.org/2000/svg" xmlns:xlink="http://www.w3.org/1999/xlink" zoomAndPan="magnify" preserveAspectRatio="xMidYMid meet" version="1.0" viewBox="52.29 135.49 272.38 103.41"><defs><g/><clipPath id="41c6a29974"><path d="M 52.292969 135.488281 L 324.667969 135.488281 L 324.667969 238.855469 L 52.292969 238.855469 Z M 52.292969 135.488281 " clip-rule="nonzero"/></clipPath><clipPath id="53b61bd0aa"><path d="M 52.292969 145.988281 L 52.292969 228.398438 C 52.292969 231.183594 53.398438 233.851562 55.367188 235.824219 C 57.339844 237.792969 60.007812 238.898438 62.792969 238.898438 L 313.828125 238.898438 C 316.613281 238.898438 319.28125 237.792969 321.253906 235.824219 C 323.222656 233.851562 324.328125 231.183594 324.328125 228.398438 L 324.328125 145.988281 C 324.328125 143.203125 323.222656 140.535156 321.253906 138.566406 C 319.28125 136.59375 316.613281 135.488281 313.828125 135.488281 L 62.792969 135.488281 C 60.007812 135.488281 57.339844 136.59375 55.367188 138.566406 C 53.398438 140.535156 52.292969 143.203125 52.292969 145.988281 Z M 52.292969 145.988281 " clip-rule="nonzero"/></clipPath></defs><g clip-path="url(#41c6a29974)"><g clip-path="url(#53b61bd0aa)"><path fill="#003542" d="M 52.292969 135.488281 L 324.667969 135.488281 L 324.667969 238.855469 L 52.292969 238.855469 Z M 52.292969 135.488281 " fill-opacity="1" fill-rule="nonzero"/></g></g><g fill="#d53343" fill-opacity="1"><g transform="translate(102.634788, 187.09698)"><g><path d="M 13.59375 -3.953125 L 4.765625 -3.953125 L 3.09375 0 L 0.03125 0 L 7.75 -17.484375 L 10.765625 -17.484375 L 18.40625 0 L 15.265625 0 Z M 12.46875 -6.578125 L 9.171875 -14.34375 L 5.875 -6.578125 Z M 12.46875 -6.578125 "/></g></g></g><g fill="#d53343" fill-opacity="1"><g transform="translate(123.322748, 187.09698)"><g><path d="M 2.296875 -17.484375 L 9.890625 -17.484375 C 11.703125 -17.484375 13.132812 -17.097656 14.1875 -16.328125 C 15.238281 -15.554688 15.765625 -14.484375 15.765625 -13.109375 C 15.765625 -12.128906 15.488281 -11.289062 14.9375 -10.59375 C 14.382812 -9.90625 13.632812 -9.445312 12.6875 -9.21875 C 13.851562 -9.019531 14.769531 -8.53125 15.4375 -7.75 C 16.101562 -6.96875 16.4375 -5.984375 16.4375 -4.796875 C 16.4375 -3.296875 15.867188 -2.117188 14.734375 -1.265625 C 13.609375 -0.421875 12.050781 0 10.0625 0 L 2.296875 0 Z M 5.25 -14.859375 L 5.25 -10.25 L 9.75 -10.25 C 10.675781 -10.25 11.40625 -10.457031 11.9375 -10.875 C 12.46875 -11.289062 12.734375 -11.863281 12.734375 -12.59375 C 12.734375 -13.320312 12.472656 -13.878906 11.953125 -14.265625 C 11.429688 -14.660156 10.695312 -14.859375 9.75 -14.859375 Z M 5.25 -7.640625 L 5.25 -2.625 L 9.75 -2.625 C 10.914062 -2.625 11.816406 -2.84375 12.453125 -3.28125 C 13.097656 -3.726562 13.421875 -4.359375 13.421875 -5.171875 C 13.421875 -5.941406 13.09375 -6.546875 12.4375 -6.984375 C 11.789062 -7.421875 10.894531 -7.640625 9.75 -7.640625 Z M 5.25 -7.640625 "/></g></g></g><g fill="#d53343" fill-opacity="1"><g transform="translate(143.211201, 187.09698)"><g><path d="M 2.296875 -17.484375 L 9.46875 -17.484375 C 12.082031 -17.484375 14.242188 -16.660156 15.953125 -15.015625 C 17.660156 -13.367188 18.515625 -11.28125 18.515625 -8.75 C 18.515625 -6.21875 17.65625 -4.125 15.9375 -2.46875 C 14.21875 -0.820312 12.035156 0 9.390625 0 L 2.296875 0 Z M 5.25 -14.84375 L 5.25 -2.640625 L 9.546875 -2.640625 C 11.265625 -2.640625 12.691406 -3.210938 13.828125 -4.359375 C 14.972656 -5.503906 15.546875 -6.957031 15.546875 -8.71875 C 15.546875 -10.488281 14.957031 -11.953125 13.78125 -13.109375 C 12.601562 -14.265625 11.148438 -14.84375 9.421875 -14.84375 Z M 5.25 -14.84375 "/></g></g></g><g fill="#d53343" fill-opacity="1"><g transform="translate(164.823581, 187.09698)"><g><path d="M 5.25 0 L 2.296875 0 L 2.296875 -17.484375 L 5.25 -17.484375 Z M 5.25 0 "/></g></g></g><g fill="#d53343" fill-opacity="1"><g transform="translate(174.618333, 187.09698)"><g><path d="M 2.71875 -17.484375 C 3.132812 -17.484375 3.492188 -17.335938 3.796875 -17.046875 C 4.097656 -16.753906 4.25 -16.367188 4.25 -15.890625 C 4.25 -15.453125 4.097656 -15.019531 3.796875 -14.59375 L 2.375 -12.4375 L 0.90625 -12.4375 L 1.84375 -14.59375 C 1.394531 -14.894531 1.171875 -15.328125 1.171875 -15.890625 C 1.171875 -16.359375 1.316406 -16.738281 1.609375 -17.03125 C 1.898438 -17.332031 2.269531 -17.484375 2.71875 -17.484375 Z M 2.71875 -17.484375 "/></g></g></g><g fill="#d53343" fill-opacity="1"><g transform="translate(182.214457, 187.09698)"><g/></g></g><g fill="#d53343" fill-opacity="1"><g transform="translate(190.909889, 187.09698)"><g><path d="M 8.046875 -17.609375 C 10.304688 -17.609375 12.347656 -17.007812 14.171875 -15.8125 L 12.9375 -13.21875 C 11.15625 -14.300781 9.445312 -14.84375 7.8125 -14.84375 C 6.9375 -14.84375 6.242188 -14.679688 5.734375 -14.359375 C 5.222656 -14.046875 4.96875 -13.597656 4.96875 -13.015625 C 4.96875 -12.429688 5.203125 -11.9375 5.671875 -11.53125 C 6.140625 -11.125 6.722656 -10.820312 7.421875 -10.625 C 8.117188 -10.4375 8.875 -10.195312 9.6875 -9.90625 C 10.507812 -9.613281 11.269531 -9.304688 11.96875 -8.984375 C 12.664062 -8.660156 13.242188 -8.148438 13.703125 -7.453125 C 14.160156 -6.765625 14.390625 -5.929688 14.390625 -4.953125 C 14.390625 -3.410156 13.773438 -2.179688 12.546875 -1.265625 C 11.328125 -0.359375 9.742188 0.09375 7.796875 0.09375 C 6.460938 0.09375 5.171875 -0.15625 3.921875 -0.65625 C 2.671875 -1.15625 1.582031 -1.828125 0.65625 -2.671875 L 1.921875 -5.21875 C 2.804688 -4.40625 3.773438 -3.773438 4.828125 -3.328125 C 5.890625 -2.890625 6.894531 -2.671875 7.84375 -2.671875 C 8.875 -2.671875 9.675781 -2.859375 10.25 -3.234375 C 10.832031 -3.609375 11.125 -4.128906 11.125 -4.796875 C 11.125 -5.398438 10.890625 -5.90625 10.421875 -6.3125 C 9.953125 -6.71875 9.367188 -7.015625 8.671875 -7.203125 C 7.972656 -7.398438 7.210938 -7.632812 6.390625 -7.90625 C 5.578125 -8.175781 4.820312 -8.46875 4.125 -8.78125 C 3.425781 -9.09375 2.84375 -9.585938 2.375 -10.265625 C 1.90625 -10.953125 1.671875 -11.773438 1.671875 -12.734375 C 1.671875 -14.222656 2.253906 -15.40625 3.421875 -16.28125 C 4.585938 -17.164062 6.128906 -17.609375 8.046875 -17.609375 Z M 8.046875 -17.609375 "/></g></g></g><g fill="#d53343" fill-opacity="1"><g transform="translate(208.699654, 187.09698)"><g/></g></g><g fill="#d53343" fill-opacity="1"><g transform="translate(217.395092, 187.09698)"><g><path d="M 13.59375 -3.953125 L 4.765625 -3.953125 L 3.09375 0 L 0.03125 0 L 7.75 -17.484375 L 10.765625 -17.484375 L 18.40625 0 L 15.265625 0 Z M 12.46875 -6.578125 L 9.171875 -14.34375 L 5.875 -6.578125 Z M 12.46875 -6.578125 "/></g></g></g><g fill="#d53343" fill-opacity="1"><g transform="translate(238.083056, 187.09698)"><g><path d="M 2.296875 -17.484375 L 9.265625 -17.484375 C 11.460938 -17.484375 13.164062 -16.960938 14.375 -15.921875 C 15.582031 -14.878906 16.1875 -13.410156 16.1875 -11.515625 C 16.1875 -9.535156 15.582031 -8 14.375 -6.90625 C 13.164062 -5.8125 11.460938 -5.265625 9.265625 -5.265625 L 5.25 -5.265625 L 5.25 0 L 2.296875 0 Z M 5.25 -14.84375 L 5.25 -7.921875 L 9.140625 -7.921875 C 11.953125 -7.921875 13.359375 -9.09375 13.359375 -11.4375 C 13.359375 -13.707031 11.953125 -14.84375 9.140625 -14.84375 Z M 5.25 -14.84375 "/></g></g></g><g fill="#d53343" fill-opacity="1"><g transform="translate(257.147035, 187.09698)"><g><path d="M 2.296875 -17.484375 L 9.265625 -17.484375 C 11.460938 -17.484375 13.164062 -16.960938 14.375 -15.921875 C 15.582031 -14.878906 16.1875 -13.410156 16.1875 -11.515625 C 16.1875 -9.535156 15.582031 -8 14.375 -6.90625 C 13.164062 -5.8125 11.460938 -5.265625 9.265625 -5.265625 L 5.25 -5.265625 L 5.25 0 L 2.296875 0 Z M 5.25 -14.84375 L 5.25 -7.921875 L 9.140625 -7.921875 C 11.953125 -7.921875 13.359375 -9.09375 13.359375 -11.4375 C 13.359375 -13.707031 11.953125 -14.84375 9.140625 -14.84375 Z M 5.25 -14.84375 "/></g></g></g><g fill="#d53343" fill-opacity="1"><g transform="translate(163.054858, 209.424023)"><g><path d="M 1.6875 -0.859375 L 4.109375 -0.859375 L 4.109375 0 L 0.734375 0 L 0.734375 -5.59375 L 1.6875 -5.59375 Z M 1.6875 -0.859375 "/></g></g></g><g fill="#d53343" fill-opacity="1"><g transform="translate(169.405281, 209.424023)"><g><path d="M 4.359375 -1.265625 L 1.53125 -1.265625 L 0.984375 0 L 0.015625 0 L 2.484375 -5.59375 L 3.453125 -5.59375 L 5.890625 0 L 4.890625 0 Z M 3.984375 -2.109375 L 2.9375 -4.59375 L 1.875 -2.109375 Z M 3.984375 -2.109375 "/></g></g></g><g fill="#d53343" fill-opacity="1"><g transform="translate(177.387299, 209.424023)"><g><path d="M 4.28125 0 L 3.265625 -1.703125 C 3.210938 -1.691406 3.128906 -1.6875 3.015625 -1.6875 L 1.6875 -1.6875 L 1.6875 0 L 0.734375 0 L 0.734375 -5.59375 L 3.015625 -5.59375 C 3.722656 -5.59375 4.273438 -5.425781 4.671875 -5.09375 C 5.066406 -4.757812 5.265625 -4.289062 5.265625 -3.6875 C 5.265625 -3.238281 5.160156 -2.859375 4.953125 -2.546875 C 4.753906 -2.242188 4.472656 -2.019531 4.109375 -1.875 L 5.359375 0 Z M 1.6875 -2.53125 L 3.015625 -2.53125 C 3.921875 -2.53125 4.375 -2.90625 4.375 -3.65625 C 4.375 -4.382812 3.921875 -4.75 3.015625 -4.75 L 1.6875 -4.75 Z M 1.6875 -2.53125 "/></g></g></g><g fill="#d53343" fill-opacity="1"><g transform="translate(185.249343, 209.424023)"><g><path d="M 4.359375 -1.265625 L 1.53125 -1.265625 L 0.984375 0 L 0.015625 0 L 2.484375 -5.59375 L 3.453125 -5.59375 L 5.890625 0 L 4.890625 0 Z M 3.984375 -2.109375 L 2.9375 -4.59375 L 1.875 -2.109375 Z M 3.984375 -2.109375 "/></g></g></g><g fill="#d53343" fill-opacity="1"><g transform="translate(193.23136, 209.424023)"><g><path d="M 3.234375 0 L 2.25 0 L 0.03125 -5.59375 L 1.046875 -5.59375 L 2.765625 -1.046875 L 4.515625 -5.59375 L 5.5 -5.59375 Z M 3.234375 0 "/></g></g></g><g fill="#d53343" fill-opacity="1"><g transform="translate(200.829472, 209.424023)"><g><path d="M 4.734375 -4.75 L 1.6875 -4.75 L 1.6875 -3.234375 L 4.421875 -3.234375 L 4.421875 -2.390625 L 1.6875 -2.390625 L 1.6875 -0.84375 L 4.828125 -0.84375 L 4.828125 0 L 0.734375 0 L 0.734375 -5.59375 L 4.734375 -5.59375 Z M 4.734375 -4.75 "/></g></g></g><g fill="#d53343" fill-opacity="1"><g transform="translate(208.155653, 209.424023)"><g><path d="M 1.6875 -0.859375 L 4.109375 -0.859375 L 4.109375 0 L 0.734375 0 L 0.734375 -5.59375 L 1.6875 -5.59375 Z M 1.6875 -0.859375 "/></g></g></g></svg>